<svg xmlns="http://www.w3.org/2000/svg" xmlns:xlink="http://www.w3.org/1999/xlink" width="375" zoomAndPan="magnify" viewBox="0 0 281.25 180.749999" height="241" preserveAspectRatio="xMidYMid meet" version="1.0"><defs><clipPath id="3756e389e8"><path d="M 46.890625 37.652344 L 80.90625 37.652344 L 80.90625 142.730469 L 46.890625 142.730469 Z M 46.890625 37.652344 " clip-rule="nonzero"/></clipPath><clipPath id="e83ec7269f"><path d="M 66.628906 37.652344 L 110.667969 37.652344 L 110.667969 68.734375 L 66.628906 68.734375 Z M 66.628906 37.652344 " clip-rule="nonzero"/></clipPath><clipPath id="ba24c6bee5"><path d="M 76.992188 37.652344 L 110.539062 37.652344 L 100.175781 68.734375 L 66.628906 68.734375 L 76.992188 37.652344 " clip-rule="nonzero"/></clipPath><clipPath id="1598968530"><path d="M 37.789062 37.652344 L 71.800781 37.652344 L 71.800781 142.730469 L 37.789062 142.730469 Z M 37.789062 37.652344 " clip-rule="nonzero"/></clipPath><clipPath id="e3be7d1250"><path d="M 57.527344 37.652344 L 101.5625 37.652344 L 101.5625 68.734375 L 57.527344 68.734375 Z M 57.527344 37.652344 " clip-rule="nonzero"/></clipPath><clipPath id="1a7ccdc1dd"><path d="M 67.886719 37.652344 L 101.433594 37.652344 L 91.074219 68.734375 L 57.527344 68.734375 L 67.886719 37.652344 " clip-rule="nonzero"/></clipPath><clipPath id="17c3599c72"><path d="M 166.238281 75 L 210.144531 75 L 210.144531 105.289062 L 166.238281 105.289062 Z M 166.238281 75 " clip-rule="nonzero"/></clipPath><clipPath id="0fe1f7b67e"><path d="M 177.214844 105.289062 L 210.144531 105.289062 L 210.144531 75.085938 L 177.214844 75.085938 L 166.238281 90.1875 L 177.214844 105.289062 " clip-rule="nonzero"/></clipPath><clipPath id="5e75f67903"><path d="M 208.671875 37.652344 L 242.6875 37.652344 L 242.6875 142.730469 L 208.671875 142.730469 Z M 208.671875 37.652344 " clip-rule="nonzero"/></clipPath><clipPath id="e48f560cfd"><path d="M 156.371094 75 L 200.277344 75 L 200.277344 105.289062 L 156.371094 105.289062 Z M 156.371094 75 " clip-rule="nonzero"/></clipPath><clipPath id="4ff38216a4"><path d="M 167.347656 105.289062 L 200.277344 105.289062 L 200.277344 75.085938 L 167.347656 75.085938 L 156.371094 90.1875 L 167.347656 105.289062 " clip-rule="nonzero"/></clipPath><clipPath id="750451bebf"><path d="M 198.804688 37.652344 L 232.820312 37.652344 L 232.820312 142.730469 L 198.804688 142.730469 Z M 198.804688 37.652344 " clip-rule="nonzero"/></clipPath><clipPath id="bc6790386e"><path d="M 115.78125 57.261719 L 159.6875 57.261719 L 159.6875 90.191406 L 115.78125 90.191406 Z M 115.78125 57.261719 " clip-rule="nonzero"/></clipPath><clipPath id="e382a1255e"><path d="M 126.757812 57.261719 L 159.6875 57.261719 L 148.710938 90.191406 L 115.78125 90.191406 L 126.757812 57.261719 " clip-rule="nonzero"/></clipPath><clipPath id="e5148dc938"><path d="M 122.339844 37.652344 L 166.246094 37.652344 L 166.246094 70.582031 L 122.339844 70.582031 Z M 122.339844 37.652344 " clip-rule="nonzero"/></clipPath><clipPath id="fe78069d5b"><path d="M 133.316406 37.652344 L 166.246094 37.652344 L 155.269531 70.582031 L 122.339844 70.582031 L 133.316406 37.652344 " clip-rule="nonzero"/></clipPath><clipPath id="fe84033d48"><path d="M 115.78125 90.191406 L 159.6875 90.191406 L 159.6875 123.121094 L 115.78125 123.121094 Z M 115.78125 90.191406 " clip-rule="nonzero"/></clipPath><clipPath id="54ffdf6676"><path d="M 148.710938 90.191406 L 115.78125 90.191406 L 126.757812 123.121094 L 159.6875 123.121094 L 148.710938 90.191406 " clip-rule="nonzero"/></clipPath><clipPath id="0a60d779a6"><path d="M 122.339844 109.800781 L 166.246094 109.800781 L 166.246094 142.730469 L 122.339844 142.730469 Z M 122.339844 109.800781 " clip-rule="nonzero"/></clipPath><clipPath id="6f8dcc3688"><path d="M 155.269531 109.800781 L 122.339844 109.800781 L 133.316406 142.730469 L 166.246094 142.730469 L 155.269531 109.800781 " clip-rule="nonzero"/></clipPath><clipPath id="89edfd3d3a"><path d="M 105.914062 57.261719 L 149.820312 57.261719 L 149.820312 90.191406 L 105.914062 90.191406 Z M 105.914062 57.261719 " clip-rule="nonzero"/></clipPath><clipPath id="4204d87fb7"><path d="M 116.890625 57.261719 L 149.820312 57.261719 L 138.84375 90.191406 L 105.914062 90.191406 L 116.890625 57.261719 " clip-rule="nonzero"/></clipPath><clipPath id="c59cc25ed9"><path d="M 112.472656 37.652344 L 156.378906 37.652344 L 156.378906 70.582031 L 112.472656 70.582031 Z M 112.472656 37.652344 " clip-rule="nonzero"/></clipPath><clipPath id="b2947d0e19"><path d="M 123.449219 37.652344 L 156.378906 37.652344 L 145.402344 70.582031 L 112.472656 70.582031 L 123.449219 37.652344 " clip-rule="nonzero"/></clipPath><clipPath id="767d22a10f"><path d="M 105.914062 90.191406 L 149.820312 90.191406 L 149.820312 123.121094 L 105.914062 123.121094 Z M 105.914062 90.191406 " clip-rule="nonzero"/></clipPath><clipPath id="80918140e3"><path d="M 138.84375 90.191406 L 105.914062 90.191406 L 116.890625 123.121094 L 149.820312 123.121094 L 138.84375 90.191406 " clip-rule="nonzero"/></clipPath><clipPath id="2d5b1ff677"><path d="M 112.472656 109.800781 L 156.378906 109.800781 L 156.378906 142.730469 L 112.472656 142.730469 Z M 112.472656 109.800781 " clip-rule="nonzero"/></clipPath><clipPath id="b62b515a4d"><path d="M 145.402344 109.800781 L 112.472656 109.800781 L 123.449219 142.730469 L 156.378906 142.730469 L 145.402344 109.800781 " clip-rule="nonzero"/></clipPath></defs><g clip-path="url(#3756e389e8)"><path fill="#fafcfe" d="M 46.890625 37.652344 L 80.785156 37.652344 L 80.785156 142.839844 L 46.890625 142.839844 Z M 46.890625 37.652344 " fill-opacity="1" fill-rule="nonzero"/></g><g clip-path="url(#e83ec7269f)"><g clip-path="url(#ba24c6bee5)"><path fill="#fafcfe" d="M 66.628906 37.652344 L 110.667969 37.652344 L 110.667969 68.734375 L 66.628906 68.734375 Z M 66.628906 37.652344 " fill-opacity="1" fill-rule="nonzero"/></g></g><g clip-path="url(#1598968530)"><path fill="#27598b" d="M 37.789062 37.652344 L 71.679688 37.652344 L 71.679688 142.839844 L 37.789062 142.839844 Z M 37.789062 37.652344 " fill-opacity="1" fill-rule="nonzero"/></g><g clip-path="url(#e3be7d1250)"><g clip-path="url(#1a7ccdc1dd)"><path fill="#27598b" d="M 57.527344 37.652344 L 101.5625 37.652344 L 101.5625 68.734375 L 57.527344 68.734375 Z M 57.527344 37.652344 " fill-opacity="1" fill-rule="nonzero"/></g></g><g clip-path="url(#17c3599c72)"><g clip-path="url(#0fe1f7b67e)"><path fill="#fafcfe" d="M 210.144531 105.289062 L 166.238281 105.289062 L 166.238281 75.101562 L 210.144531 75.101562 Z M 210.144531 105.289062 " fill-opacity="1" fill-rule="nonzero"/></g></g><g clip-path="url(#5e75f67903)"><path fill="#fafcfe" d="M 208.671875 37.652344 L 242.566406 37.652344 L 242.566406 142.839844 L 208.671875 142.839844 Z M 208.671875 37.652344 " fill-opacity="1" fill-rule="nonzero"/></g><g clip-path="url(#e48f560cfd)"><g clip-path="url(#4ff38216a4)"><path fill="#27598b" d="M 200.277344 105.289062 L 156.371094 105.289062 L 156.371094 75.101562 L 200.277344 75.101562 Z M 200.277344 105.289062 " fill-opacity="1" fill-rule="nonzero"/></g></g><g clip-path="url(#750451bebf)"><path fill="#27598b" d="M 198.804688 37.652344 L 232.699219 37.652344 L 232.699219 142.839844 L 198.804688 142.839844 Z M 198.804688 37.652344 " fill-opacity="1" fill-rule="nonzero"/></g><g clip-path="url(#bc6790386e)"><g clip-path="url(#e382a1255e)"><path fill="#fafcfe" d="M 115.78125 57.261719 L 159.6875 57.261719 L 159.6875 90.191406 L 115.78125 90.191406 Z M 115.78125 57.261719 " fill-opacity="1" fill-rule="nonzero"/></g></g><g clip-path="url(#e5148dc938)"><g clip-path="url(#fe78069d5b)"><path fill="#fafcfe" d="M 122.339844 37.652344 L 166.246094 37.652344 L 166.246094 70.582031 L 122.339844 70.582031 Z M 122.339844 37.652344 " fill-opacity="1" fill-rule="nonzero"/></g></g><g clip-path="url(#fe84033d48)"><g clip-path="url(#54ffdf6676)"><path fill="#fafcfe" d="M 115.78125 90.191406 L 159.6875 90.191406 L 159.6875 123.121094 L 115.78125 123.121094 Z M 115.78125 90.191406 " fill-opacity="1" fill-rule="nonzero"/></g></g><g clip-path="url(#0a60d779a6)"><g clip-path="url(#6f8dcc3688)"><path fill="#fafcfe" d="M 122.339844 109.800781 L 166.246094 109.800781 L 166.246094 142.730469 L 122.339844 142.730469 Z M 122.339844 109.800781 " fill-opacity="1" fill-rule="nonzero"/></g></g><g clip-path="url(#89edfd3d3a)"><g clip-path="url(#4204d87fb7)"><path fill="#27598b" d="M 105.914062 57.261719 L 149.820312 57.261719 L 149.820312 90.191406 L 105.914062 90.191406 Z M 105.914062 57.261719 " fill-opacity="1" fill-rule="nonzero"/></g></g><g clip-path="url(#c59cc25ed9)"><g clip-path="url(#b2947d0e19)"><path fill="#27598b" d="M 112.472656 37.652344 L 156.378906 37.652344 L 156.378906 70.582031 L 112.472656 70.582031 Z M 112.472656 37.652344 " fill-opacity="1" fill-rule="nonzero"/></g></g><g clip-path="url(#767d22a10f)"><g clip-path="url(#80918140e3)"><path fill="#27598b" d="M 105.914062 90.191406 L 149.820312 90.191406 L 149.820312 123.121094 L 105.914062 123.121094 Z M 105.914062 90.191406 " fill-opacity="1" fill-rule="nonzero"/></g></g><g clip-path="url(#2d5b1ff677)"><g clip-path="url(#b62b515a4d)"><path fill="#27598b" d="M 112.472656 109.800781 L 156.378906 109.800781 L 156.378906 142.730469 L 112.472656 142.730469 Z M 112.472656 109.800781 " fill-opacity="1" fill-rule="nonzero"/></g></g></svg>