<svg xmlns="http://www.w3.org/2000/svg" xmlns:xlink="http://www.w3.org/1999/xlink" width="375" zoomAndPan="magnify" viewBox="0 0 281.25 205.499992" height="274" preserveAspectRatio="xMidYMid meet" version="1.0"><defs><g/><clipPath id="63f6ae9958"><path d="M 46.890625 37.558594 L 80.90625 37.558594 L 80.90625 142.640625 L 46.890625 142.640625 Z M 46.890625 37.558594 " clip-rule="nonzero"/></clipPath><clipPath id="f5d42614e5"><path d="M 66.628906 37.558594 L 110.667969 37.558594 L 110.667969 68.644531 L 66.628906 68.644531 Z M 66.628906 37.558594 " clip-rule="nonzero"/></clipPath><clipPath id="1163e1a982"><path d="M 76.992188 37.558594 L 110.539062 37.558594 L 100.175781 68.644531 L 66.628906 68.644531 L 76.992188 37.558594 " clip-rule="nonzero"/></clipPath><clipPath id="86340f54d3"><path d="M 37.789062 37.558594 L 71.800781 37.558594 L 71.800781 142.640625 L 37.789062 142.640625 Z M 37.789062 37.558594 " clip-rule="nonzero"/></clipPath><clipPath id="fadf2a2ecd"><path d="M 57.527344 37.558594 L 101.5625 37.558594 L 101.5625 68.644531 L 57.527344 68.644531 Z M 57.527344 37.558594 " clip-rule="nonzero"/></clipPath><clipPath id="efe25c5ac5"><path d="M 67.886719 37.558594 L 101.433594 37.558594 L 91.074219 68.644531 L 57.527344 68.644531 L 67.886719 37.558594 " clip-rule="nonzero"/></clipPath><clipPath id="7a598c1435"><path d="M 166.238281 75 L 210.144531 75 L 210.144531 105.199219 L 166.238281 105.199219 Z M 166.238281 75 " clip-rule="nonzero"/></clipPath><clipPath id="9838598b84"><path d="M 177.214844 105.199219 L 210.144531 105.199219 L 210.144531 74.996094 L 177.214844 74.996094 L 166.238281 90.097656 L 177.214844 105.199219 " clip-rule="nonzero"/></clipPath><clipPath id="dc008a4566"><path d="M 208.671875 37.558594 L 242.6875 37.558594 L 242.6875 142.640625 L 208.671875 142.640625 Z M 208.671875 37.558594 " clip-rule="nonzero"/></clipPath><clipPath id="b94e44966a"><path d="M 156.371094 75 L 200.277344 75 L 200.277344 105.199219 L 156.371094 105.199219 Z M 156.371094 75 " clip-rule="nonzero"/></clipPath><clipPath id="666d40bbdc"><path d="M 167.347656 105.199219 L 200.277344 105.199219 L 200.277344 74.996094 L 167.347656 74.996094 L 156.371094 90.097656 L 167.347656 105.199219 " clip-rule="nonzero"/></clipPath><clipPath id="d5e1ec0d14"><path d="M 198.804688 37.558594 L 232.820312 37.558594 L 232.820312 142.640625 L 198.804688 142.640625 Z M 198.804688 37.558594 " clip-rule="nonzero"/></clipPath><clipPath id="5b0b6a07b6"><path d="M 115.78125 57.167969 L 159.6875 57.167969 L 159.6875 90.097656 L 115.78125 90.097656 Z M 115.78125 57.167969 " clip-rule="nonzero"/></clipPath><clipPath id="ddb3f07f4a"><path d="M 126.757812 57.167969 L 159.6875 57.167969 L 148.710938 90.097656 L 115.78125 90.097656 L 126.757812 57.167969 " clip-rule="nonzero"/></clipPath><clipPath id="b869332f41"><path d="M 122.339844 37.558594 L 166.246094 37.558594 L 166.246094 70.488281 L 122.339844 70.488281 Z M 122.339844 37.558594 " clip-rule="nonzero"/></clipPath><clipPath id="1fe94c8929"><path d="M 133.316406 37.558594 L 166.246094 37.558594 L 155.269531 70.488281 L 122.339844 70.488281 L 133.316406 37.558594 " clip-rule="nonzero"/></clipPath><clipPath id="b109c98be4"><path d="M 115.78125 90.097656 L 159.6875 90.097656 L 159.6875 123.03125 L 115.78125 123.03125 Z M 115.78125 90.097656 " clip-rule="nonzero"/></clipPath><clipPath id="6ec6813d8e"><path d="M 148.710938 90.097656 L 115.78125 90.097656 L 126.757812 123.03125 L 159.6875 123.03125 L 148.710938 90.097656 " clip-rule="nonzero"/></clipPath><clipPath id="c0af4adfe7"><path d="M 122.339844 109.707031 L 166.246094 109.707031 L 166.246094 142.640625 L 122.339844 142.640625 Z M 122.339844 109.707031 " clip-rule="nonzero"/></clipPath><clipPath id="8f2e562d0f"><path d="M 155.269531 109.707031 L 122.339844 109.707031 L 133.316406 142.640625 L 166.246094 142.640625 L 155.269531 109.707031 " clip-rule="nonzero"/></clipPath><clipPath id="1b3a888975"><path d="M 105.914062 57.167969 L 149.820312 57.167969 L 149.820312 90.097656 L 105.914062 90.097656 Z M 105.914062 57.167969 " clip-rule="nonzero"/></clipPath><clipPath id="a3237731e0"><path d="M 116.890625 57.167969 L 149.820312 57.167969 L 138.84375 90.097656 L 105.914062 90.097656 L 116.890625 57.167969 " clip-rule="nonzero"/></clipPath><clipPath id="87ec79bdd0"><path d="M 112.472656 37.558594 L 156.378906 37.558594 L 156.378906 70.488281 L 112.472656 70.488281 Z M 112.472656 37.558594 " clip-rule="nonzero"/></clipPath><clipPath id="c265b60507"><path d="M 123.449219 37.558594 L 156.378906 37.558594 L 145.402344 70.488281 L 112.472656 70.488281 L 123.449219 37.558594 " clip-rule="nonzero"/></clipPath><clipPath id="ac62eca671"><path d="M 105.914062 90.097656 L 149.820312 90.097656 L 149.820312 123.03125 L 105.914062 123.03125 Z M 105.914062 90.097656 " clip-rule="nonzero"/></clipPath><clipPath id="6d2a766645"><path d="M 138.84375 90.097656 L 105.914062 90.097656 L 116.890625 123.03125 L 149.820312 123.03125 L 138.84375 90.097656 " clip-rule="nonzero"/></clipPath><clipPath id="f64e84c2f1"><path d="M 112.472656 109.707031 L 156.378906 109.707031 L 156.378906 142.640625 L 112.472656 142.640625 Z M 112.472656 109.707031 " clip-rule="nonzero"/></clipPath><clipPath id="0016887caa"><path d="M 145.402344 109.707031 L 112.472656 109.707031 L 123.449219 142.640625 L 156.378906 142.640625 L 145.402344 109.707031 " clip-rule="nonzero"/></clipPath></defs><g clip-path="url(#63f6ae9958)"><path fill="#fafcfe" d="M 46.890625 37.558594 L 80.785156 37.558594 L 80.785156 142.746094 L 46.890625 142.746094 Z M 46.890625 37.558594 " fill-opacity="1" fill-rule="nonzero"/></g><g clip-path="url(#f5d42614e5)"><g clip-path="url(#1163e1a982)"><path fill="#fafcfe" d="M 66.628906 37.558594 L 110.667969 37.558594 L 110.667969 68.644531 L 66.628906 68.644531 Z M 66.628906 37.558594 " fill-opacity="1" fill-rule="nonzero"/></g></g><g clip-path="url(#86340f54d3)"><path fill="#27598b" d="M 37.789062 37.558594 L 71.679688 37.558594 L 71.679688 142.746094 L 37.789062 142.746094 Z M 37.789062 37.558594 " fill-opacity="1" fill-rule="nonzero"/></g><g clip-path="url(#fadf2a2ecd)"><g clip-path="url(#efe25c5ac5)"><path fill="#27598b" d="M 57.527344 37.558594 L 101.5625 37.558594 L 101.5625 68.644531 L 57.527344 68.644531 Z M 57.527344 37.558594 " fill-opacity="1" fill-rule="nonzero"/></g></g><g clip-path="url(#7a598c1435)"><g clip-path="url(#9838598b84)"><path fill="#fafcfe" d="M 210.144531 105.199219 L 166.238281 105.199219 L 166.238281 75.011719 L 210.144531 75.011719 Z M 210.144531 105.199219 " fill-opacity="1" fill-rule="nonzero"/></g></g><g clip-path="url(#dc008a4566)"><path fill="#fafcfe" d="M 208.671875 37.558594 L 242.566406 37.558594 L 242.566406 142.746094 L 208.671875 142.746094 Z M 208.671875 37.558594 " fill-opacity="1" fill-rule="nonzero"/></g><g clip-path="url(#b94e44966a)"><g clip-path="url(#666d40bbdc)"><path fill="#27598b" d="M 200.277344 105.199219 L 156.371094 105.199219 L 156.371094 75.011719 L 200.277344 75.011719 Z M 200.277344 105.199219 " fill-opacity="1" fill-rule="nonzero"/></g></g><g clip-path="url(#d5e1ec0d14)"><path fill="#27598b" d="M 198.804688 37.558594 L 232.699219 37.558594 L 232.699219 142.746094 L 198.804688 142.746094 Z M 198.804688 37.558594 " fill-opacity="1" fill-rule="nonzero"/></g><g clip-path="url(#5b0b6a07b6)"><g clip-path="url(#ddb3f07f4a)"><path fill="#fafcfe" d="M 115.78125 57.167969 L 159.6875 57.167969 L 159.6875 90.097656 L 115.78125 90.097656 Z M 115.78125 57.167969 " fill-opacity="1" fill-rule="nonzero"/></g></g><g clip-path="url(#b869332f41)"><g clip-path="url(#1fe94c8929)"><path fill="#fafcfe" d="M 122.339844 37.558594 L 166.246094 37.558594 L 166.246094 70.488281 L 122.339844 70.488281 Z M 122.339844 37.558594 " fill-opacity="1" fill-rule="nonzero"/></g></g><g clip-path="url(#b109c98be4)"><g clip-path="url(#6ec6813d8e)"><path fill="#fafcfe" d="M 115.78125 90.097656 L 159.6875 90.097656 L 159.6875 123.03125 L 115.78125 123.03125 Z M 115.78125 90.097656 " fill-opacity="1" fill-rule="nonzero"/></g></g><g clip-path="url(#c0af4adfe7)"><g clip-path="url(#8f2e562d0f)"><path fill="#fafcfe" d="M 122.339844 109.707031 L 166.246094 109.707031 L 166.246094 142.640625 L 122.339844 142.640625 Z M 122.339844 109.707031 " fill-opacity="1" fill-rule="nonzero"/></g></g><g clip-path="url(#1b3a888975)"><g clip-path="url(#a3237731e0)"><path fill="#27598b" d="M 105.914062 57.167969 L 149.820312 57.167969 L 149.820312 90.097656 L 105.914062 90.097656 Z M 105.914062 57.167969 " fill-opacity="1" fill-rule="nonzero"/></g></g><g clip-path="url(#87ec79bdd0)"><g clip-path="url(#c265b60507)"><path fill="#27598b" d="M 112.472656 37.558594 L 156.378906 37.558594 L 156.378906 70.488281 L 112.472656 70.488281 Z M 112.472656 37.558594 " fill-opacity="1" fill-rule="nonzero"/></g></g><g clip-path="url(#ac62eca671)"><g clip-path="url(#6d2a766645)"><path fill="#27598b" d="M 105.914062 90.097656 L 149.820312 90.097656 L 149.820312 123.03125 L 105.914062 123.03125 Z M 105.914062 90.097656 " fill-opacity="1" fill-rule="nonzero"/></g></g><g clip-path="url(#f64e84c2f1)"><g clip-path="url(#0016887caa)"><path fill="#27598b" d="M 112.472656 109.707031 L 156.378906 109.707031 L 156.378906 142.640625 L 112.472656 142.640625 Z M 112.472656 109.707031 " fill-opacity="1" fill-rule="nonzero"/></g></g><g fill="#f3f3f3" fill-opacity="0.4"><g transform="translate(52.933945, 163.186165)"><g><path d="M 5.265625 0.046875 C 4.453125 0.046875 4.046875 -0.171875 4.046875 -0.609375 L 4.046875 -11.671875 L 0.78125 -11.671875 C 0.5625 -11.671875 0.40625 -11.753906 0.3125 -11.921875 C 0.21875 -12.085938 0.171875 -12.347656 0.171875 -12.703125 L 0.171875 -13.328125 C 0.171875 -13.691406 0.21875 -13.953125 0.3125 -14.109375 C 0.40625 -14.273438 0.5625 -14.359375 0.78125 -14.359375 L 10.484375 -14.359375 C 10.703125 -14.359375 10.859375 -14.273438 10.953125 -14.109375 C 11.046875 -13.953125 11.09375 -13.691406 11.09375 -13.328125 L 11.09375 -12.703125 C 11.09375 -12.347656 11.046875 -12.085938 10.953125 -11.921875 C 10.859375 -11.753906 10.703125 -11.671875 10.484375 -11.671875 L 7.21875 -11.671875 L 7.21875 -0.609375 C 7.21875 -0.171875 6.804688 0.046875 5.984375 0.046875 Z M 5.265625 0.046875 "/></g></g></g><g fill="#f3f3f3" fill-opacity="0.4"><g transform="translate(64.188437, 163.186165)"><g><path d="M 2.640625 0.046875 C 1.828125 0.046875 1.421875 -0.171875 1.421875 -0.609375 L 1.421875 -13.546875 C 1.421875 -13.828125 1.484375 -14.03125 1.609375 -14.15625 C 1.742188 -14.289062 1.953125 -14.359375 2.234375 -14.359375 L 6.234375 -14.359375 C 9.640625 -14.359375 11.34375 -13.070312 11.34375 -10.5 C 11.34375 -9.738281 11.125 -9.070312 10.6875 -8.5 C 10.257812 -7.9375 9.675781 -7.515625 8.9375 -7.234375 L 8.9375 -7.15625 C 9.195312 -7.0625 9.460938 -6.832031 9.734375 -6.46875 C 10.015625 -6.101562 10.242188 -5.703125 10.421875 -5.265625 L 12.234375 -0.765625 C 12.296875 -0.585938 12.328125 -0.457031 12.328125 -0.375 C 12.328125 -0.25 12.222656 -0.144531 12.015625 -0.0625 C 11.816406 0.0078125 11.507812 0.046875 11.09375 0.046875 L 10.265625 0.046875 C 9.585938 0.046875 9.1875 -0.0976562 9.0625 -0.390625 L 7.453125 -4.390625 C 7.210938 -4.835938 6.957031 -5.15625 6.6875 -5.34375 C 6.425781 -5.53125 5.988281 -5.625 5.375 -5.625 L 4.578125 -5.625 L 4.578125 -0.609375 C 4.578125 -0.171875 4.164062 0.046875 3.34375 0.046875 Z M 6.53125 -8.34375 C 6.945312 -8.34375 7.3125 -8.515625 7.625 -8.859375 C 7.945312 -9.203125 8.109375 -9.617188 8.109375 -10.109375 C 8.109375 -10.585938 7.953125 -10.96875 7.640625 -11.25 C 7.335938 -11.53125 6.914062 -11.671875 6.375 -11.671875 L 4.578125 -11.671875 L 4.578125 -8.34375 Z M 6.53125 -8.34375 "/></g></g></g><g fill="#f3f3f3" fill-opacity="0.4"><g transform="translate(76.693431, 163.186165)"><g><path d="M 1.25 0.046875 C 0.414062 0.046875 0 -0.101562 0 -0.40625 C 0 -0.46875 0.0234375 -0.59375 0.078125 -0.78125 L 4.59375 -13.96875 C 4.707031 -14.257812 5.097656 -14.40625 5.765625 -14.40625 L 6.828125 -14.40625 C 7.515625 -14.40625 7.90625 -14.257812 8 -13.96875 L 12.515625 -0.78125 C 12.554688 -0.644531 12.578125 -0.519531 12.578125 -0.40625 C 12.578125 -0.101562 12.234375 0.046875 11.546875 0.046875 L 10.640625 0.046875 C 9.972656 0.046875 9.59375 -0.0976562 9.5 -0.390625 L 8.671875 -2.890625 L 3.84375 -2.890625 L 3.015625 -0.390625 C 2.921875 -0.0976562 2.609375 0.046875 2.078125 0.046875 Z M 7.796875 -5.59375 L 6.625 -9.25 C 6.53125 -9.519531 6.425781 -9.957031 6.3125 -10.5625 L 6.234375 -10.5625 C 6.222656 -10.476562 6.191406 -10.296875 6.140625 -10.015625 C 6.097656 -9.734375 6.023438 -9.476562 5.921875 -9.25 L 4.71875 -5.59375 Z M 7.796875 -5.59375 "/></g></g></g><g fill="#f3f3f3" fill-opacity="0.4"><g transform="translate(89.259922, 163.186165)"><g><path d="M 2.640625 0.046875 C 1.828125 0.046875 1.421875 -0.171875 1.421875 -0.609375 L 1.421875 -13.75 C 1.421875 -14.1875 1.828125 -14.40625 2.640625 -14.40625 L 3.53125 -14.40625 C 3.851562 -14.40625 4.125 -14.363281 4.34375 -14.28125 C 4.5625 -14.207031 4.738281 -14.0625 4.875 -13.84375 L 9.5 -6.734375 C 9.769531 -6.335938 10.015625 -5.929688 10.234375 -5.515625 L 10.3125 -5.546875 C 10.289062 -5.859375 10.28125 -6.320312 10.28125 -6.9375 L 10.28125 -13.75 C 10.28125 -14.1875 10.691406 -14.40625 11.515625 -14.40625 L 12.109375 -14.40625 C 12.921875 -14.40625 13.328125 -14.1875 13.328125 -13.75 L 13.328125 -0.609375 C 13.328125 -0.171875 12.921875 0.046875 12.109375 0.046875 L 11.328125 0.046875 C 10.992188 0.046875 10.71875 0.0078125 10.5 -0.0625 C 10.28125 -0.144531 10.101562 -0.296875 9.96875 -0.515625 L 5.25 -7.734375 C 4.976562 -8.128906 4.734375 -8.53125 4.515625 -8.9375 L 4.4375 -8.921875 C 4.457031 -8.609375 4.46875 -8.144531 4.46875 -7.53125 L 4.46875 -0.609375 C 4.46875 -0.171875 4.054688 0.046875 3.234375 0.046875 Z M 2.640625 0.046875 "/></g></g></g><g fill="#f3f3f3" fill-opacity="0.4"><g transform="translate(108.919418, 163.186165)"><g><path d="M 2.640625 0.046875 C 1.828125 0.046875 1.421875 -0.171875 1.421875 -0.609375 L 1.421875 -13.75 C 1.421875 -14.1875 1.828125 -14.40625 2.640625 -14.40625 L 3.359375 -14.40625 C 4.179688 -14.40625 4.59375 -14.1875 4.59375 -13.75 L 4.59375 -8.25 L 4.671875 -8.234375 L 8.25 -14.015625 C 8.394531 -14.273438 8.804688 -14.40625 9.484375 -14.40625 L 10.4375 -14.40625 C 11.207031 -14.40625 11.59375 -14.300781 11.59375 -14.09375 C 11.59375 -13.96875 11.535156 -13.820312 11.421875 -13.65625 L 7.46875 -7.59375 L 11.953125 -0.703125 C 12.066406 -0.535156 12.125 -0.390625 12.125 -0.265625 C 12.125 -0.0546875 11.738281 0.046875 10.96875 0.046875 L 9.78125 0.046875 C 9.101562 0.046875 8.6875 -0.0820312 8.53125 -0.34375 L 4.671875 -6.578125 L 4.59375 -6.5625 L 4.59375 -0.609375 C 4.59375 -0.171875 4.179688 0.046875 3.359375 0.046875 Z M 2.640625 0.046875 "/></g></g></g><g fill="#f3f3f3" fill-opacity="0.4"><g transform="translate(120.727414, 163.186165)"><g><path d="M 2.796875 0.046875 C 1.972656 0.046875 1.5625 -0.171875 1.5625 -0.609375 L 1.5625 -13.75 C 1.5625 -14.1875 1.972656 -14.40625 2.796875 -14.40625 L 3.515625 -14.40625 C 4.328125 -14.40625 4.734375 -14.1875 4.734375 -13.75 L 4.734375 -8.671875 L 10.28125 -8.671875 L 10.28125 -13.75 C 10.28125 -14.1875 10.691406 -14.40625 11.515625 -14.40625 L 12.234375 -14.40625 C 13.046875 -14.40625 13.453125 -14.1875 13.453125 -13.75 L 13.453125 -0.609375 C 13.453125 -0.171875 13.046875 0.046875 12.234375 0.046875 L 11.515625 0.046875 C 10.691406 0.046875 10.28125 -0.171875 10.28125 -0.609375 L 10.28125 -5.96875 L 4.734375 -5.96875 L 4.734375 -0.609375 C 4.734375 -0.171875 4.328125 0.046875 3.515625 0.046875 Z M 2.796875 0.046875 "/></g></g></g><g fill="#f3f3f3" fill-opacity="0.4"><g transform="translate(135.753913, 163.186165)"><g><path d="M 1.25 0.046875 C 0.414062 0.046875 0 -0.101562 0 -0.40625 C 0 -0.46875 0.0234375 -0.59375 0.078125 -0.78125 L 4.59375 -13.96875 C 4.707031 -14.257812 5.097656 -14.40625 5.765625 -14.40625 L 6.828125 -14.40625 C 7.515625 -14.40625 7.90625 -14.257812 8 -13.96875 L 12.515625 -0.78125 C 12.554688 -0.644531 12.578125 -0.519531 12.578125 -0.40625 C 12.578125 -0.101562 12.234375 0.046875 11.546875 0.046875 L 10.640625 0.046875 C 9.972656 0.046875 9.59375 -0.0976562 9.5 -0.390625 L 8.671875 -2.890625 L 3.84375 -2.890625 L 3.015625 -0.390625 C 2.921875 -0.0976562 2.609375 0.046875 2.078125 0.046875 Z M 7.796875 -5.59375 L 6.625 -9.25 C 6.53125 -9.519531 6.425781 -9.957031 6.3125 -10.5625 L 6.234375 -10.5625 C 6.222656 -10.476562 6.191406 -10.296875 6.140625 -10.015625 C 6.097656 -9.734375 6.023438 -9.476562 5.921875 -9.25 L 4.71875 -5.59375 Z M 7.796875 -5.59375 "/></g></g></g><g fill="#f3f3f3" fill-opacity="0.4"><g transform="translate(148.320404, 163.186165)"><g><path d="M 2.546875 0.0625 C 1.722656 0.0625 1.3125 -0.160156 1.3125 -0.609375 L 1.3125 -13.75 C 1.3125 -14.195312 1.722656 -14.421875 2.546875 -14.421875 L 3.265625 -14.421875 C 4.085938 -14.421875 4.5 -14.195312 4.5 -13.75 L 4.5 -0.609375 C 4.5 -0.160156 4.085938 0.0625 3.265625 0.0625 Z M 2.546875 0.0625 "/></g></g></g><g fill="#f3f3f3" fill-opacity="0.4"><g transform="translate(154.121908, 163.186165)"><g/></g></g><g fill="#f3f3f3" fill-opacity="0.4"><g transform="translate(159.041912, 163.186165)"><g><path d="M 2.796875 0.046875 C 1.972656 0.046875 1.5625 -0.171875 1.5625 -0.609375 L 1.5625 -13.75 C 1.5625 -14.1875 1.972656 -14.40625 2.796875 -14.40625 L 3.515625 -14.40625 C 4.328125 -14.40625 4.734375 -14.1875 4.734375 -13.75 L 4.734375 -8.671875 L 10.28125 -8.671875 L 10.28125 -13.75 C 10.28125 -14.1875 10.691406 -14.40625 11.515625 -14.40625 L 12.234375 -14.40625 C 13.046875 -14.40625 13.453125 -14.1875 13.453125 -13.75 L 13.453125 -0.609375 C 13.453125 -0.171875 13.046875 0.046875 12.234375 0.046875 L 11.515625 0.046875 C 10.691406 0.046875 10.28125 -0.171875 10.28125 -0.609375 L 10.28125 -5.96875 L 4.734375 -5.96875 L 4.734375 -0.609375 C 4.734375 -0.171875 4.328125 0.046875 3.515625 0.046875 Z M 2.796875 0.046875 "/></g></g></g><g fill="#f3f3f3" fill-opacity="0.4"><g transform="translate(174.068411, 163.186165)"><g><path d="M 7.515625 0.171875 C 5.390625 0.171875 3.757812 -0.457031 2.625 -1.71875 C 1.488281 -2.988281 0.921875 -4.8125 0.921875 -7.1875 C 0.921875 -9.550781 1.488281 -11.363281 2.625 -12.625 C 3.757812 -13.894531 5.390625 -14.53125 7.515625 -14.53125 C 9.628906 -14.53125 11.25 -13.894531 12.375 -12.625 C 13.507812 -11.363281 14.078125 -9.550781 14.078125 -7.1875 C 14.078125 -4.8125 13.507812 -2.988281 12.375 -1.71875 C 11.25 -0.457031 9.628906 0.171875 7.515625 0.171875 Z M 7.515625 -2.515625 C 8.609375 -2.515625 9.429688 -2.910156 9.984375 -3.703125 C 10.546875 -4.503906 10.828125 -5.664062 10.828125 -7.1875 C 10.828125 -8.695312 10.546875 -9.84375 9.984375 -10.625 C 9.429688 -11.414062 8.609375 -11.8125 7.515625 -11.8125 C 6.421875 -11.8125 5.585938 -11.414062 5.015625 -10.625 C 4.453125 -9.84375 4.171875 -8.695312 4.171875 -7.1875 C 4.171875 -5.664062 4.453125 -4.503906 5.015625 -3.703125 C 5.585938 -2.910156 6.421875 -2.515625 7.515625 -2.515625 Z M 7.515625 -2.515625 "/></g></g></g><g fill="#f3f3f3" fill-opacity="0.4"><g transform="translate(189.053912, 163.186165)"><g><path d="M 1.25 0.046875 C 0.414062 0.046875 0 -0.101562 0 -0.40625 C 0 -0.46875 0.0234375 -0.59375 0.078125 -0.78125 L 4.59375 -13.96875 C 4.707031 -14.257812 5.097656 -14.40625 5.765625 -14.40625 L 6.828125 -14.40625 C 7.515625 -14.40625 7.90625 -14.257812 8 -13.96875 L 12.515625 -0.78125 C 12.554688 -0.644531 12.578125 -0.519531 12.578125 -0.40625 C 12.578125 -0.101562 12.234375 0.046875 11.546875 0.046875 L 10.640625 0.046875 C 9.972656 0.046875 9.59375 -0.0976562 9.5 -0.390625 L 8.671875 -2.890625 L 3.84375 -2.890625 L 3.015625 -0.390625 C 2.921875 -0.0976562 2.609375 0.046875 2.078125 0.046875 Z M 7.796875 -5.59375 L 6.625 -9.25 C 6.53125 -9.519531 6.425781 -9.957031 6.3125 -10.5625 L 6.234375 -10.5625 C 6.222656 -10.476562 6.191406 -10.296875 6.140625 -10.015625 C 6.097656 -9.734375 6.023438 -9.476562 5.921875 -9.25 L 4.71875 -5.59375 Z M 7.796875 -5.59375 "/></g></g></g><g fill="#f3f3f3" fill-opacity="0.4"><g transform="translate(201.620403, 163.186165)"><g><path d="M 2.640625 0.046875 C 1.828125 0.046875 1.421875 -0.171875 1.421875 -0.609375 L 1.421875 -13.75 C 1.421875 -14.1875 1.828125 -14.40625 2.640625 -14.40625 L 3.53125 -14.40625 C 3.851562 -14.40625 4.125 -14.363281 4.34375 -14.28125 C 4.5625 -14.207031 4.738281 -14.0625 4.875 -13.84375 L 9.5 -6.734375 C 9.769531 -6.335938 10.015625 -5.929688 10.234375 -5.515625 L 10.3125 -5.546875 C 10.289062 -5.859375 10.28125 -6.320312 10.28125 -6.9375 L 10.28125 -13.75 C 10.28125 -14.1875 10.691406 -14.40625 11.515625 -14.40625 L 12.109375 -14.40625 C 12.921875 -14.40625 13.328125 -14.1875 13.328125 -13.75 L 13.328125 -0.609375 C 13.328125 -0.171875 12.921875 0.046875 12.109375 0.046875 L 11.328125 0.046875 C 10.992188 0.046875 10.71875 0.0078125 10.5 -0.0625 C 10.28125 -0.144531 10.101562 -0.296875 9.96875 -0.515625 L 5.25 -7.734375 C 4.976562 -8.128906 4.734375 -8.53125 4.515625 -8.9375 L 4.4375 -8.921875 C 4.457031 -8.609375 4.46875 -8.144531 4.46875 -7.53125 L 4.46875 -0.609375 C 4.46875 -0.171875 4.054688 0.046875 3.234375 0.046875 Z M 2.640625 0.046875 "/></g></g></g><g fill="#f3f3f3" fill-opacity="0.4"><g transform="translate(216.359895, 163.186165)"><g><path d="M 11.625 -7.984375 C 11.914062 -7.984375 12.125 -7.914062 12.25 -7.78125 C 12.382812 -7.65625 12.453125 -7.445312 12.453125 -7.15625 L 12.453125 -1.453125 C 12.453125 -0.835938 11.9375 -0.410156 10.90625 -0.171875 C 9.882812 0.0546875 8.804688 0.171875 7.671875 0.171875 C 5.367188 0.171875 3.664062 -0.425781 2.5625 -1.625 C 1.46875 -2.820312 0.921875 -4.6875 0.921875 -7.21875 C 0.921875 -12.09375 3.207031 -14.53125 7.78125 -14.53125 C 8.40625 -14.53125 9.054688 -14.46875 9.734375 -14.34375 C 10.421875 -14.21875 11 -14.046875 11.46875 -13.828125 C 11.9375 -13.609375 12.171875 -13.363281 12.171875 -13.09375 C 12.171875 -12.894531 12.09375 -12.640625 11.9375 -12.328125 C 11.789062 -12.023438 11.609375 -11.753906 11.390625 -11.515625 C 11.179688 -11.273438 10.992188 -11.15625 10.828125 -11.15625 C 10.785156 -11.15625 10.613281 -11.21875 10.3125 -11.34375 C 10.019531 -11.46875 9.65625 -11.578125 9.21875 -11.671875 C 8.789062 -11.765625 8.289062 -11.8125 7.71875 -11.8125 C 6.507812 -11.8125 5.613281 -11.425781 5.03125 -10.65625 C 4.457031 -9.894531 4.171875 -8.742188 4.171875 -7.203125 C 4.171875 -4.078125 5.335938 -2.515625 7.671875 -2.515625 C 8.222656 -2.515625 8.753906 -2.566406 9.265625 -2.671875 L 9.265625 -5.265625 L 7.46875 -5.265625 C 7.25 -5.265625 7.09375 -5.347656 7 -5.515625 C 6.90625 -5.679688 6.859375 -5.941406 6.859375 -6.296875 L 6.859375 -6.953125 C 6.859375 -7.304688 6.90625 -7.566406 7 -7.734375 C 7.09375 -7.898438 7.25 -7.984375 7.46875 -7.984375 Z M 11.625 -7.984375 "/></g></g></g><g fill="#fafcfe" fill-opacity="1"><g transform="translate(52.027186, 162.279399)"><g><path d="M 5.265625 0.046875 C 4.453125 0.046875 4.046875 -0.171875 4.046875 -0.609375 L 4.046875 -11.671875 L 0.78125 -11.671875 C 0.5625 -11.671875 0.40625 -11.753906 0.3125 -11.921875 C 0.21875 -12.085938 0.171875 -12.347656 0.171875 -12.703125 L 0.171875 -13.328125 C 0.171875 -13.691406 0.21875 -13.953125 0.3125 -14.109375 C 0.40625 -14.273438 0.5625 -14.359375 0.78125 -14.359375 L 10.484375 -14.359375 C 10.703125 -14.359375 10.859375 -14.273438 10.953125 -14.109375 C 11.046875 -13.953125 11.09375 -13.691406 11.09375 -13.328125 L 11.09375 -12.703125 C 11.09375 -12.347656 11.046875 -12.085938 10.953125 -11.921875 C 10.859375 -11.753906 10.703125 -11.671875 10.484375 -11.671875 L 7.21875 -11.671875 L 7.21875 -0.609375 C 7.21875 -0.171875 6.804688 0.046875 5.984375 0.046875 Z M 5.265625 0.046875 "/></g></g></g><g fill="#fafcfe" fill-opacity="1"><g transform="translate(63.281677, 162.279399)"><g><path d="M 2.640625 0.046875 C 1.828125 0.046875 1.421875 -0.171875 1.421875 -0.609375 L 1.421875 -13.546875 C 1.421875 -13.828125 1.484375 -14.03125 1.609375 -14.15625 C 1.742188 -14.289062 1.953125 -14.359375 2.234375 -14.359375 L 6.234375 -14.359375 C 9.640625 -14.359375 11.34375 -13.070312 11.34375 -10.5 C 11.34375 -9.738281 11.125 -9.070312 10.6875 -8.5 C 10.257812 -7.9375 9.675781 -7.515625 8.9375 -7.234375 L 8.9375 -7.15625 C 9.195312 -7.0625 9.460938 -6.832031 9.734375 -6.46875 C 10.015625 -6.101562 10.242188 -5.703125 10.421875 -5.265625 L 12.234375 -0.765625 C 12.296875 -0.585938 12.328125 -0.457031 12.328125 -0.375 C 12.328125 -0.25 12.222656 -0.144531 12.015625 -0.0625 C 11.816406 0.0078125 11.507812 0.046875 11.09375 0.046875 L 10.265625 0.046875 C 9.585938 0.046875 9.1875 -0.0976562 9.0625 -0.390625 L 7.453125 -4.390625 C 7.210938 -4.835938 6.957031 -5.15625 6.6875 -5.34375 C 6.425781 -5.53125 5.988281 -5.625 5.375 -5.625 L 4.578125 -5.625 L 4.578125 -0.609375 C 4.578125 -0.171875 4.164062 0.046875 3.34375 0.046875 Z M 6.53125 -8.34375 C 6.945312 -8.34375 7.3125 -8.515625 7.625 -8.859375 C 7.945312 -9.203125 8.109375 -9.617188 8.109375 -10.109375 C 8.109375 -10.585938 7.953125 -10.96875 7.640625 -11.25 C 7.335938 -11.53125 6.914062 -11.671875 6.375 -11.671875 L 4.578125 -11.671875 L 4.578125 -8.34375 Z M 6.53125 -8.34375 "/></g></g></g><g fill="#fafcfe" fill-opacity="1"><g transform="translate(75.786672, 162.279399)"><g><path d="M 1.25 0.046875 C 0.414062 0.046875 0 -0.101562 0 -0.40625 C 0 -0.46875 0.0234375 -0.59375 0.078125 -0.78125 L 4.59375 -13.96875 C 4.707031 -14.257812 5.097656 -14.40625 5.765625 -14.40625 L 6.828125 -14.40625 C 7.515625 -14.40625 7.90625 -14.257812 8 -13.96875 L 12.515625 -0.78125 C 12.554688 -0.644531 12.578125 -0.519531 12.578125 -0.40625 C 12.578125 -0.101562 12.234375 0.046875 11.546875 0.046875 L 10.640625 0.046875 C 9.972656 0.046875 9.59375 -0.0976562 9.5 -0.390625 L 8.671875 -2.890625 L 3.84375 -2.890625 L 3.015625 -0.390625 C 2.921875 -0.0976562 2.609375 0.046875 2.078125 0.046875 Z M 7.796875 -5.59375 L 6.625 -9.25 C 6.53125 -9.519531 6.425781 -9.957031 6.3125 -10.5625 L 6.234375 -10.5625 C 6.222656 -10.476562 6.191406 -10.296875 6.140625 -10.015625 C 6.097656 -9.734375 6.023438 -9.476562 5.921875 -9.25 L 4.71875 -5.59375 Z M 7.796875 -5.59375 "/></g></g></g><g fill="#fafcfe" fill-opacity="1"><g transform="translate(88.353163, 162.279399)"><g><path d="M 2.640625 0.046875 C 1.828125 0.046875 1.421875 -0.171875 1.421875 -0.609375 L 1.421875 -13.75 C 1.421875 -14.1875 1.828125 -14.40625 2.640625 -14.40625 L 3.53125 -14.40625 C 3.851562 -14.40625 4.125 -14.363281 4.34375 -14.28125 C 4.5625 -14.207031 4.738281 -14.0625 4.875 -13.84375 L 9.5 -6.734375 C 9.769531 -6.335938 10.015625 -5.929688 10.234375 -5.515625 L 10.3125 -5.546875 C 10.289062 -5.859375 10.28125 -6.320312 10.28125 -6.9375 L 10.28125 -13.75 C 10.28125 -14.1875 10.691406 -14.40625 11.515625 -14.40625 L 12.109375 -14.40625 C 12.921875 -14.40625 13.328125 -14.1875 13.328125 -13.75 L 13.328125 -0.609375 C 13.328125 -0.171875 12.921875 0.046875 12.109375 0.046875 L 11.328125 0.046875 C 10.992188 0.046875 10.71875 0.0078125 10.5 -0.0625 C 10.28125 -0.144531 10.101562 -0.296875 9.96875 -0.515625 L 5.25 -7.734375 C 4.976562 -8.128906 4.734375 -8.53125 4.515625 -8.9375 L 4.4375 -8.921875 C 4.457031 -8.609375 4.46875 -8.144531 4.46875 -7.53125 L 4.46875 -0.609375 C 4.46875 -0.171875 4.054688 0.046875 3.234375 0.046875 Z M 2.640625 0.046875 "/></g></g></g><g fill="#fafcfe" fill-opacity="1"><g transform="translate(103.092654, 162.279399)"><g/></g></g><g fill="#fafcfe" fill-opacity="1"><g transform="translate(108.012658, 162.279399)"><g><path d="M 2.640625 0.046875 C 1.828125 0.046875 1.421875 -0.171875 1.421875 -0.609375 L 1.421875 -13.75 C 1.421875 -14.1875 1.828125 -14.40625 2.640625 -14.40625 L 3.359375 -14.40625 C 4.179688 -14.40625 4.59375 -14.1875 4.59375 -13.75 L 4.59375 -8.25 L 4.671875 -8.234375 L 8.25 -14.015625 C 8.394531 -14.273438 8.804688 -14.40625 9.484375 -14.40625 L 10.4375 -14.40625 C 11.207031 -14.40625 11.59375 -14.300781 11.59375 -14.09375 C 11.59375 -13.96875 11.535156 -13.820312 11.421875 -13.65625 L 7.46875 -7.59375 L 11.953125 -0.703125 C 12.066406 -0.535156 12.125 -0.390625 12.125 -0.265625 C 12.125 -0.0546875 11.738281 0.046875 10.96875 0.046875 L 9.78125 0.046875 C 9.101562 0.046875 8.6875 -0.0820312 8.53125 -0.34375 L 4.671875 -6.578125 L 4.59375 -6.5625 L 4.59375 -0.609375 C 4.59375 -0.171875 4.179688 0.046875 3.359375 0.046875 Z M 2.640625 0.046875 "/></g></g></g><g fill="#fafcfe" fill-opacity="1"><g transform="translate(119.820655, 162.279399)"><g><path d="M 2.796875 0.046875 C 1.972656 0.046875 1.5625 -0.171875 1.5625 -0.609375 L 1.5625 -13.75 C 1.5625 -14.1875 1.972656 -14.40625 2.796875 -14.40625 L 3.515625 -14.40625 C 4.328125 -14.40625 4.734375 -14.1875 4.734375 -13.75 L 4.734375 -8.671875 L 10.28125 -8.671875 L 10.28125 -13.75 C 10.28125 -14.1875 10.691406 -14.40625 11.515625 -14.40625 L 12.234375 -14.40625 C 13.046875 -14.40625 13.453125 -14.1875 13.453125 -13.75 L 13.453125 -0.609375 C 13.453125 -0.171875 13.046875 0.046875 12.234375 0.046875 L 11.515625 0.046875 C 10.691406 0.046875 10.28125 -0.171875 10.28125 -0.609375 L 10.28125 -5.96875 L 4.734375 -5.96875 L 4.734375 -0.609375 C 4.734375 -0.171875 4.328125 0.046875 3.515625 0.046875 Z M 2.796875 0.046875 "/></g></g></g><g fill="#fafcfe" fill-opacity="1"><g transform="translate(134.847154, 162.279399)"><g><path d="M 1.25 0.046875 C 0.414062 0.046875 0 -0.101562 0 -0.40625 C 0 -0.46875 0.0234375 -0.59375 0.078125 -0.78125 L 4.59375 -13.96875 C 4.707031 -14.257812 5.097656 -14.40625 5.765625 -14.40625 L 6.828125 -14.40625 C 7.515625 -14.40625 7.90625 -14.257812 8 -13.96875 L 12.515625 -0.78125 C 12.554688 -0.644531 12.578125 -0.519531 12.578125 -0.40625 C 12.578125 -0.101562 12.234375 0.046875 11.546875 0.046875 L 10.640625 0.046875 C 9.972656 0.046875 9.59375 -0.0976562 9.5 -0.390625 L 8.671875 -2.890625 L 3.84375 -2.890625 L 3.015625 -0.390625 C 2.921875 -0.0976562 2.609375 0.046875 2.078125 0.046875 Z M 7.796875 -5.59375 L 6.625 -9.25 C 6.53125 -9.519531 6.425781 -9.957031 6.3125 -10.5625 L 6.234375 -10.5625 C 6.222656 -10.476562 6.191406 -10.296875 6.140625 -10.015625 C 6.097656 -9.734375 6.023438 -9.476562 5.921875 -9.25 L 4.71875 -5.59375 Z M 7.796875 -5.59375 "/></g></g></g><g fill="#fafcfe" fill-opacity="1"><g transform="translate(147.413645, 162.279399)"><g><path d="M 2.546875 0.0625 C 1.722656 0.0625 1.3125 -0.160156 1.3125 -0.609375 L 1.3125 -13.75 C 1.3125 -14.195312 1.722656 -14.421875 2.546875 -14.421875 L 3.265625 -14.421875 C 4.085938 -14.421875 4.5 -14.195312 4.5 -13.75 L 4.5 -0.609375 C 4.5 -0.160156 4.085938 0.0625 3.265625 0.0625 Z M 2.546875 0.0625 "/></g></g></g><g fill="#fafcfe" fill-opacity="1"><g transform="translate(153.215148, 162.279399)"><g/></g></g><g fill="#fafcfe" fill-opacity="1"><g transform="translate(158.135153, 162.279399)"><g><path d="M 2.796875 0.046875 C 1.972656 0.046875 1.5625 -0.171875 1.5625 -0.609375 L 1.5625 -13.75 C 1.5625 -14.1875 1.972656 -14.40625 2.796875 -14.40625 L 3.515625 -14.40625 C 4.328125 -14.40625 4.734375 -14.1875 4.734375 -13.75 L 4.734375 -8.671875 L 10.28125 -8.671875 L 10.28125 -13.75 C 10.28125 -14.1875 10.691406 -14.40625 11.515625 -14.40625 L 12.234375 -14.40625 C 13.046875 -14.40625 13.453125 -14.1875 13.453125 -13.75 L 13.453125 -0.609375 C 13.453125 -0.171875 13.046875 0.046875 12.234375 0.046875 L 11.515625 0.046875 C 10.691406 0.046875 10.28125 -0.171875 10.28125 -0.609375 L 10.28125 -5.96875 L 4.734375 -5.96875 L 4.734375 -0.609375 C 4.734375 -0.171875 4.328125 0.046875 3.515625 0.046875 Z M 2.796875 0.046875 "/></g></g></g><g fill="#fafcfe" fill-opacity="1"><g transform="translate(173.161651, 162.279399)"><g><path d="M 7.515625 0.171875 C 5.390625 0.171875 3.757812 -0.457031 2.625 -1.71875 C 1.488281 -2.988281 0.921875 -4.8125 0.921875 -7.1875 C 0.921875 -9.550781 1.488281 -11.363281 2.625 -12.625 C 3.757812 -13.894531 5.390625 -14.53125 7.515625 -14.53125 C 9.628906 -14.53125 11.25 -13.894531 12.375 -12.625 C 13.507812 -11.363281 14.078125 -9.550781 14.078125 -7.1875 C 14.078125 -4.8125 13.507812 -2.988281 12.375 -1.71875 C 11.25 -0.457031 9.628906 0.171875 7.515625 0.171875 Z M 7.515625 -2.515625 C 8.609375 -2.515625 9.429688 -2.910156 9.984375 -3.703125 C 10.546875 -4.503906 10.828125 -5.664062 10.828125 -7.1875 C 10.828125 -8.695312 10.546875 -9.84375 9.984375 -10.625 C 9.429688 -11.414062 8.609375 -11.8125 7.515625 -11.8125 C 6.421875 -11.8125 5.585938 -11.414062 5.015625 -10.625 C 4.453125 -9.84375 4.171875 -8.695312 4.171875 -7.1875 C 4.171875 -5.664062 4.453125 -4.503906 5.015625 -3.703125 C 5.585938 -2.910156 6.421875 -2.515625 7.515625 -2.515625 Z M 7.515625 -2.515625 "/></g></g></g><g fill="#fafcfe" fill-opacity="1"><g transform="translate(188.147153, 162.279399)"><g><path d="M 1.25 0.046875 C 0.414062 0.046875 0 -0.101562 0 -0.40625 C 0 -0.46875 0.0234375 -0.59375 0.078125 -0.78125 L 4.59375 -13.96875 C 4.707031 -14.257812 5.097656 -14.40625 5.765625 -14.40625 L 6.828125 -14.40625 C 7.515625 -14.40625 7.90625 -14.257812 8 -13.96875 L 12.515625 -0.78125 C 12.554688 -0.644531 12.578125 -0.519531 12.578125 -0.40625 C 12.578125 -0.101562 12.234375 0.046875 11.546875 0.046875 L 10.640625 0.046875 C 9.972656 0.046875 9.59375 -0.0976562 9.5 -0.390625 L 8.671875 -2.890625 L 3.84375 -2.890625 L 3.015625 -0.390625 C 2.921875 -0.0976562 2.609375 0.046875 2.078125 0.046875 Z M 7.796875 -5.59375 L 6.625 -9.25 C 6.53125 -9.519531 6.425781 -9.957031 6.3125 -10.5625 L 6.234375 -10.5625 C 6.222656 -10.476562 6.191406 -10.296875 6.140625 -10.015625 C 6.097656 -9.734375 6.023438 -9.476562 5.921875 -9.25 L 4.71875 -5.59375 Z M 7.796875 -5.59375 "/></g></g></g><g fill="#fafcfe" fill-opacity="1"><g transform="translate(200.713644, 162.279399)"><g><path d="M 2.640625 0.046875 C 1.828125 0.046875 1.421875 -0.171875 1.421875 -0.609375 L 1.421875 -13.75 C 1.421875 -14.1875 1.828125 -14.40625 2.640625 -14.40625 L 3.53125 -14.40625 C 3.851562 -14.40625 4.125 -14.363281 4.34375 -14.28125 C 4.5625 -14.207031 4.738281 -14.0625 4.875 -13.84375 L 9.5 -6.734375 C 9.769531 -6.335938 10.015625 -5.929688 10.234375 -5.515625 L 10.3125 -5.546875 C 10.289062 -5.859375 10.28125 -6.320312 10.28125 -6.9375 L 10.28125 -13.75 C 10.28125 -14.1875 10.691406 -14.40625 11.515625 -14.40625 L 12.109375 -14.40625 C 12.921875 -14.40625 13.328125 -14.1875 13.328125 -13.75 L 13.328125 -0.609375 C 13.328125 -0.171875 12.921875 0.046875 12.109375 0.046875 L 11.328125 0.046875 C 10.992188 0.046875 10.71875 0.0078125 10.5 -0.0625 C 10.28125 -0.144531 10.101562 -0.296875 9.96875 -0.515625 L 5.25 -7.734375 C 4.976562 -8.128906 4.734375 -8.53125 4.515625 -8.9375 L 4.4375 -8.921875 C 4.457031 -8.609375 4.46875 -8.144531 4.46875 -7.53125 L 4.46875 -0.609375 C 4.46875 -0.171875 4.054688 0.046875 3.234375 0.046875 Z M 2.640625 0.046875 "/></g></g></g><g fill="#fafcfe" fill-opacity="1"><g transform="translate(215.453135, 162.279399)"><g><path d="M 11.625 -7.984375 C 11.914062 -7.984375 12.125 -7.914062 12.25 -7.78125 C 12.382812 -7.65625 12.453125 -7.445312 12.453125 -7.15625 L 12.453125 -1.453125 C 12.453125 -0.835938 11.9375 -0.410156 10.90625 -0.171875 C 9.882812 0.0546875 8.804688 0.171875 7.671875 0.171875 C 5.367188 0.171875 3.664062 -0.425781 2.5625 -1.625 C 1.46875 -2.820312 0.921875 -4.6875 0.921875 -7.21875 C 0.921875 -12.09375 3.207031 -14.53125 7.78125 -14.53125 C 8.40625 -14.53125 9.054688 -14.46875 9.734375 -14.34375 C 10.421875 -14.21875 11 -14.046875 11.46875 -13.828125 C 11.9375 -13.609375 12.171875 -13.363281 12.171875 -13.09375 C 12.171875 -12.894531 12.09375 -12.640625 11.9375 -12.328125 C 11.789062 -12.023438 11.609375 -11.753906 11.390625 -11.515625 C 11.179688 -11.273438 10.992188 -11.15625 10.828125 -11.15625 C 10.785156 -11.15625 10.613281 -11.21875 10.3125 -11.34375 C 10.019531 -11.46875 9.65625 -11.578125 9.21875 -11.671875 C 8.789062 -11.765625 8.289062 -11.8125 7.71875 -11.8125 C 6.507812 -11.8125 5.613281 -11.425781 5.03125 -10.65625 C 4.457031 -9.894531 4.171875 -8.742188 4.171875 -7.203125 C 4.171875 -4.078125 5.335938 -2.515625 7.671875 -2.515625 C 8.222656 -2.515625 8.753906 -2.566406 9.265625 -2.671875 L 9.265625 -5.265625 L 7.46875 -5.265625 C 7.25 -5.265625 7.09375 -5.347656 7 -5.515625 C 6.90625 -5.679688 6.859375 -5.941406 6.859375 -6.296875 L 6.859375 -6.953125 C 6.859375 -7.304688 6.90625 -7.566406 7 -7.734375 C 7.09375 -7.898438 7.25 -7.984375 7.46875 -7.984375 Z M 11.625 -7.984375 "/></g></g></g></svg>