<svg xmlns="http://www.w3.org/2000/svg" xmlns:xlink="http://www.w3.org/1999/xlink" width="375" zoomAndPan="magnify" viewBox="0 0 281.25 180.749999" height="241" preserveAspectRatio="xMidYMid meet" version="1.0"><defs><clipPath id="5e551f50f3"><path d="M 46.890625 37.652344 L 80.90625 37.652344 L 80.90625 142.730469 L 46.890625 142.730469 Z M 46.890625 37.652344 " clip-rule="nonzero"/></clipPath><clipPath id="98c22caa55"><path d="M 66.628906 37.652344 L 110.667969 37.652344 L 110.667969 68.734375 L 66.628906 68.734375 Z M 66.628906 37.652344 " clip-rule="nonzero"/></clipPath><clipPath id="02707192f4"><path d="M 76.992188 37.652344 L 110.539062 37.652344 L 100.175781 68.734375 L 66.628906 68.734375 L 76.992188 37.652344 " clip-rule="nonzero"/></clipPath><clipPath id="e7ccb76077"><path d="M 37.789062 37.652344 L 71.800781 37.652344 L 71.800781 142.730469 L 37.789062 142.730469 Z M 37.789062 37.652344 " clip-rule="nonzero"/></clipPath><clipPath id="4f7f1ae135"><path d="M 57.527344 37.652344 L 101.5625 37.652344 L 101.5625 68.734375 L 57.527344 68.734375 Z M 57.527344 37.652344 " clip-rule="nonzero"/></clipPath><clipPath id="d5c6c0de6f"><path d="M 67.886719 37.652344 L 101.433594 37.652344 L 91.074219 68.734375 L 57.527344 68.734375 L 67.886719 37.652344 " clip-rule="nonzero"/></clipPath><clipPath id="c016b9f918"><path d="M 166.238281 75 L 210.144531 75 L 210.144531 105.289062 L 166.238281 105.289062 Z M 166.238281 75 " clip-rule="nonzero"/></clipPath><clipPath id="badaf294a6"><path d="M 177.214844 105.289062 L 210.144531 105.289062 L 210.144531 75.085938 L 177.214844 75.085938 L 166.238281 90.1875 L 177.214844 105.289062 " clip-rule="nonzero"/></clipPath><clipPath id="5a5e69e269"><path d="M 208.671875 37.652344 L 242.6875 37.652344 L 242.6875 142.730469 L 208.671875 142.730469 Z M 208.671875 37.652344 " clip-rule="nonzero"/></clipPath><clipPath id="c87d3084a6"><path d="M 156.371094 75 L 200.277344 75 L 200.277344 105.289062 L 156.371094 105.289062 Z M 156.371094 75 " clip-rule="nonzero"/></clipPath><clipPath id="ad1a48f05c"><path d="M 167.347656 105.289062 L 200.277344 105.289062 L 200.277344 75.085938 L 167.347656 75.085938 L 156.371094 90.1875 L 167.347656 105.289062 " clip-rule="nonzero"/></clipPath><clipPath id="29fec5fb15"><path d="M 198.804688 37.652344 L 232.820312 37.652344 L 232.820312 142.730469 L 198.804688 142.730469 Z M 198.804688 37.652344 " clip-rule="nonzero"/></clipPath><clipPath id="8d7dd9a49a"><path d="M 115.78125 57.261719 L 159.6875 57.261719 L 159.6875 90.191406 L 115.78125 90.191406 Z M 115.78125 57.261719 " clip-rule="nonzero"/></clipPath><clipPath id="637cd3f1bf"><path d="M 126.757812 57.261719 L 159.6875 57.261719 L 148.710938 90.191406 L 115.78125 90.191406 L 126.757812 57.261719 " clip-rule="nonzero"/></clipPath><clipPath id="cba18b1bb7"><path d="M 122.339844 37.652344 L 166.246094 37.652344 L 166.246094 70.582031 L 122.339844 70.582031 Z M 122.339844 37.652344 " clip-rule="nonzero"/></clipPath><clipPath id="2b41ff0968"><path d="M 133.316406 37.652344 L 166.246094 37.652344 L 155.269531 70.582031 L 122.339844 70.582031 L 133.316406 37.652344 " clip-rule="nonzero"/></clipPath><clipPath id="647a2b894a"><path d="M 115.78125 90.191406 L 159.6875 90.191406 L 159.6875 123.121094 L 115.78125 123.121094 Z M 115.78125 90.191406 " clip-rule="nonzero"/></clipPath><clipPath id="9995e0d49b"><path d="M 148.710938 90.191406 L 115.78125 90.191406 L 126.757812 123.121094 L 159.6875 123.121094 L 148.710938 90.191406 " clip-rule="nonzero"/></clipPath><clipPath id="23389cf7c2"><path d="M 122.339844 109.800781 L 166.246094 109.800781 L 166.246094 142.730469 L 122.339844 142.730469 Z M 122.339844 109.800781 " clip-rule="nonzero"/></clipPath><clipPath id="e207955100"><path d="M 155.269531 109.800781 L 122.339844 109.800781 L 133.316406 142.730469 L 166.246094 142.730469 L 155.269531 109.800781 " clip-rule="nonzero"/></clipPath><clipPath id="4200a9b291"><path d="M 105.914062 57.261719 L 149.820312 57.261719 L 149.820312 90.191406 L 105.914062 90.191406 Z M 105.914062 57.261719 " clip-rule="nonzero"/></clipPath><clipPath id="8a0f0f9705"><path d="M 116.890625 57.261719 L 149.820312 57.261719 L 138.84375 90.191406 L 105.914062 90.191406 L 116.890625 57.261719 " clip-rule="nonzero"/></clipPath><clipPath id="c3c591b822"><path d="M 112.472656 37.652344 L 156.378906 37.652344 L 156.378906 70.582031 L 112.472656 70.582031 Z M 112.472656 37.652344 " clip-rule="nonzero"/></clipPath><clipPath id="2cd1d92729"><path d="M 123.449219 37.652344 L 156.378906 37.652344 L 145.402344 70.582031 L 112.472656 70.582031 L 123.449219 37.652344 " clip-rule="nonzero"/></clipPath><clipPath id="d8c44490b8"><path d="M 105.914062 90.191406 L 149.820312 90.191406 L 149.820312 123.121094 L 105.914062 123.121094 Z M 105.914062 90.191406 " clip-rule="nonzero"/></clipPath><clipPath id="aab52c0486"><path d="M 138.84375 90.191406 L 105.914062 90.191406 L 116.890625 123.121094 L 149.820312 123.121094 L 138.84375 90.191406 " clip-rule="nonzero"/></clipPath><clipPath id="edd155c78b"><path d="M 112.472656 109.800781 L 156.378906 109.800781 L 156.378906 142.730469 L 112.472656 142.730469 Z M 112.472656 109.800781 " clip-rule="nonzero"/></clipPath><clipPath id="f95e111770"><path d="M 145.402344 109.800781 L 112.472656 109.800781 L 123.449219 142.730469 L 156.378906 142.730469 L 145.402344 109.800781 " clip-rule="nonzero"/></clipPath></defs><g clip-path="url(#5e551f50f3)"><path fill="#f3f3f3" d="M 46.890625 37.652344 L 80.785156 37.652344 L 80.785156 142.839844 L 46.890625 142.839844 Z M 46.890625 37.652344 " fill-opacity="1" fill-rule="nonzero"/></g><g clip-path="url(#98c22caa55)"><g clip-path="url(#02707192f4)"><path fill="#f3f3f3" d="M 66.628906 37.652344 L 110.667969 37.652344 L 110.667969 68.734375 L 66.628906 68.734375 Z M 66.628906 37.652344 " fill-opacity="1" fill-rule="nonzero"/></g></g><g clip-path="url(#e7ccb76077)"><path fill="#05b481" d="M 37.789062 37.652344 L 71.679688 37.652344 L 71.679688 142.839844 L 37.789062 142.839844 Z M 37.789062 37.652344 " fill-opacity="1" fill-rule="nonzero"/></g><g clip-path="url(#4f7f1ae135)"><g clip-path="url(#d5c6c0de6f)"><path fill="#05b481" d="M 57.527344 37.652344 L 101.5625 37.652344 L 101.5625 68.734375 L 57.527344 68.734375 Z M 57.527344 37.652344 " fill-opacity="1" fill-rule="nonzero"/></g></g><g clip-path="url(#c016b9f918)"><g clip-path="url(#badaf294a6)"><path fill="#f3f3f3" d="M 210.144531 105.289062 L 166.238281 105.289062 L 166.238281 75.101562 L 210.144531 75.101562 Z M 210.144531 105.289062 " fill-opacity="1" fill-rule="nonzero"/></g></g><g clip-path="url(#5a5e69e269)"><path fill="#f3f3f3" d="M 208.671875 37.652344 L 242.566406 37.652344 L 242.566406 142.839844 L 208.671875 142.839844 Z M 208.671875 37.652344 " fill-opacity="1" fill-rule="nonzero"/></g><g clip-path="url(#c87d3084a6)"><g clip-path="url(#ad1a48f05c)"><path fill="#05b481" d="M 200.277344 105.289062 L 156.371094 105.289062 L 156.371094 75.101562 L 200.277344 75.101562 Z M 200.277344 105.289062 " fill-opacity="1" fill-rule="nonzero"/></g></g><g clip-path="url(#29fec5fb15)"><path fill="#05b481" d="M 198.804688 37.652344 L 232.699219 37.652344 L 232.699219 142.839844 L 198.804688 142.839844 Z M 198.804688 37.652344 " fill-opacity="1" fill-rule="nonzero"/></g><g clip-path="url(#8d7dd9a49a)"><g clip-path="url(#637cd3f1bf)"><path fill="#f3f3f3" d="M 115.78125 57.261719 L 159.6875 57.261719 L 159.6875 90.191406 L 115.78125 90.191406 Z M 115.78125 57.261719 " fill-opacity="1" fill-rule="nonzero"/></g></g><g clip-path="url(#cba18b1bb7)"><g clip-path="url(#2b41ff0968)"><path fill="#f3f3f3" d="M 122.339844 37.652344 L 166.246094 37.652344 L 166.246094 70.582031 L 122.339844 70.582031 Z M 122.339844 37.652344 " fill-opacity="1" fill-rule="nonzero"/></g></g><g clip-path="url(#647a2b894a)"><g clip-path="url(#9995e0d49b)"><path fill="#f3f3f3" d="M 115.78125 90.191406 L 159.6875 90.191406 L 159.6875 123.121094 L 115.78125 123.121094 Z M 115.78125 90.191406 " fill-opacity="1" fill-rule="nonzero"/></g></g><g clip-path="url(#23389cf7c2)"><g clip-path="url(#e207955100)"><path fill="#f3f3f3" d="M 122.339844 109.800781 L 166.246094 109.800781 L 166.246094 142.730469 L 122.339844 142.730469 Z M 122.339844 109.800781 " fill-opacity="1" fill-rule="nonzero"/></g></g><g clip-path="url(#4200a9b291)"><g clip-path="url(#8a0f0f9705)"><path fill="#05b481" d="M 105.914062 57.261719 L 149.820312 57.261719 L 149.820312 90.191406 L 105.914062 90.191406 Z M 105.914062 57.261719 " fill-opacity="1" fill-rule="nonzero"/></g></g><g clip-path="url(#c3c591b822)"><g clip-path="url(#2cd1d92729)"><path fill="#05b481" d="M 112.472656 37.652344 L 156.378906 37.652344 L 156.378906 70.582031 L 112.472656 70.582031 Z M 112.472656 37.652344 " fill-opacity="1" fill-rule="nonzero"/></g></g><g clip-path="url(#d8c44490b8)"><g clip-path="url(#aab52c0486)"><path fill="#05b481" d="M 105.914062 90.191406 L 149.820312 90.191406 L 149.820312 123.121094 L 105.914062 123.121094 Z M 105.914062 90.191406 " fill-opacity="1" fill-rule="nonzero"/></g></g><g clip-path="url(#edd155c78b)"><g clip-path="url(#f95e111770)"><path fill="#05b481" d="M 112.472656 109.800781 L 156.378906 109.800781 L 156.378906 142.730469 L 112.472656 142.730469 Z M 112.472656 109.800781 " fill-opacity="1" fill-rule="nonzero"/></g></g></svg>