<svg xmlns="http://www.w3.org/2000/svg" xmlns:xlink="http://www.w3.org/1999/xlink" width="375" zoomAndPan="magnify" viewBox="0 0 281.25 180.749999" height="241" preserveAspectRatio="xMidYMid meet" version="1.0"><defs><clipPath id="d66819372a"><path d="M 46.890625 37.652344 L 80.90625 37.652344 L 80.90625 142.730469 L 46.890625 142.730469 Z M 46.890625 37.652344 " clip-rule="nonzero"/></clipPath><clipPath id="8acff7b64b"><path d="M 66.628906 37.652344 L 110.667969 37.652344 L 110.667969 68.734375 L 66.628906 68.734375 Z M 66.628906 37.652344 " clip-rule="nonzero"/></clipPath><clipPath id="bfb595bcd6"><path d="M 76.992188 37.652344 L 110.539062 37.652344 L 100.175781 68.734375 L 66.628906 68.734375 L 76.992188 37.652344 " clip-rule="nonzero"/></clipPath><clipPath id="b7cf59997e"><path d="M 37.789062 37.652344 L 71.800781 37.652344 L 71.800781 142.730469 L 37.789062 142.730469 Z M 37.789062 37.652344 " clip-rule="nonzero"/></clipPath><clipPath id="49918d7817"><path d="M 57.527344 37.652344 L 101.5625 37.652344 L 101.5625 68.734375 L 57.527344 68.734375 Z M 57.527344 37.652344 " clip-rule="nonzero"/></clipPath><clipPath id="3a5daed35e"><path d="M 67.886719 37.652344 L 101.433594 37.652344 L 91.074219 68.734375 L 57.527344 68.734375 L 67.886719 37.652344 " clip-rule="nonzero"/></clipPath><clipPath id="0ed4edb8d0"><path d="M 166.238281 75 L 210.144531 75 L 210.144531 105.289062 L 166.238281 105.289062 Z M 166.238281 75 " clip-rule="nonzero"/></clipPath><clipPath id="08e0095a78"><path d="M 177.214844 105.289062 L 210.144531 105.289062 L 210.144531 75.085938 L 177.214844 75.085938 L 166.238281 90.1875 L 177.214844 105.289062 " clip-rule="nonzero"/></clipPath><clipPath id="c59a1f0e8d"><path d="M 208.671875 37.652344 L 242.6875 37.652344 L 242.6875 142.730469 L 208.671875 142.730469 Z M 208.671875 37.652344 " clip-rule="nonzero"/></clipPath><clipPath id="ea5f75f617"><path d="M 156.371094 75 L 200.277344 75 L 200.277344 105.289062 L 156.371094 105.289062 Z M 156.371094 75 " clip-rule="nonzero"/></clipPath><clipPath id="b6467ec318"><path d="M 167.347656 105.289062 L 200.277344 105.289062 L 200.277344 75.085938 L 167.347656 75.085938 L 156.371094 90.1875 L 167.347656 105.289062 " clip-rule="nonzero"/></clipPath><clipPath id="1ca0eb9deb"><path d="M 198.804688 37.652344 L 232.820312 37.652344 L 232.820312 142.730469 L 198.804688 142.730469 Z M 198.804688 37.652344 " clip-rule="nonzero"/></clipPath><clipPath id="ccd2212acf"><path d="M 115.78125 57.261719 L 159.6875 57.261719 L 159.6875 90.191406 L 115.78125 90.191406 Z M 115.78125 57.261719 " clip-rule="nonzero"/></clipPath><clipPath id="67ec456b69"><path d="M 126.757812 57.261719 L 159.6875 57.261719 L 148.710938 90.191406 L 115.78125 90.191406 L 126.757812 57.261719 " clip-rule="nonzero"/></clipPath><clipPath id="742c654197"><path d="M 122.339844 37.652344 L 166.246094 37.652344 L 166.246094 70.582031 L 122.339844 70.582031 Z M 122.339844 37.652344 " clip-rule="nonzero"/></clipPath><clipPath id="4ac4c9a5cc"><path d="M 133.316406 37.652344 L 166.246094 37.652344 L 155.269531 70.582031 L 122.339844 70.582031 L 133.316406 37.652344 " clip-rule="nonzero"/></clipPath><clipPath id="8bcc1701ce"><path d="M 115.78125 90.191406 L 159.6875 90.191406 L 159.6875 123.121094 L 115.78125 123.121094 Z M 115.78125 90.191406 " clip-rule="nonzero"/></clipPath><clipPath id="920c655e51"><path d="M 148.710938 90.191406 L 115.78125 90.191406 L 126.757812 123.121094 L 159.6875 123.121094 L 148.710938 90.191406 " clip-rule="nonzero"/></clipPath><clipPath id="ee446b41b9"><path d="M 122.339844 109.800781 L 166.246094 109.800781 L 166.246094 142.730469 L 122.339844 142.730469 Z M 122.339844 109.800781 " clip-rule="nonzero"/></clipPath><clipPath id="1dd59bc536"><path d="M 155.269531 109.800781 L 122.339844 109.800781 L 133.316406 142.730469 L 166.246094 142.730469 L 155.269531 109.800781 " clip-rule="nonzero"/></clipPath><clipPath id="7271bdea78"><path d="M 105.914062 57.261719 L 149.820312 57.261719 L 149.820312 90.191406 L 105.914062 90.191406 Z M 105.914062 57.261719 " clip-rule="nonzero"/></clipPath><clipPath id="c9933b69a7"><path d="M 116.890625 57.261719 L 149.820312 57.261719 L 138.84375 90.191406 L 105.914062 90.191406 L 116.890625 57.261719 " clip-rule="nonzero"/></clipPath><clipPath id="d68c52fc26"><path d="M 112.472656 37.652344 L 156.378906 37.652344 L 156.378906 70.582031 L 112.472656 70.582031 Z M 112.472656 37.652344 " clip-rule="nonzero"/></clipPath><clipPath id="5c8d4ad76e"><path d="M 123.449219 37.652344 L 156.378906 37.652344 L 145.402344 70.582031 L 112.472656 70.582031 L 123.449219 37.652344 " clip-rule="nonzero"/></clipPath><clipPath id="24c65d65b2"><path d="M 105.914062 90.191406 L 149.820312 90.191406 L 149.820312 123.121094 L 105.914062 123.121094 Z M 105.914062 90.191406 " clip-rule="nonzero"/></clipPath><clipPath id="29d017f40c"><path d="M 138.84375 90.191406 L 105.914062 90.191406 L 116.890625 123.121094 L 149.820312 123.121094 L 138.84375 90.191406 " clip-rule="nonzero"/></clipPath><clipPath id="ac831d9d2e"><path d="M 112.472656 109.800781 L 156.378906 109.800781 L 156.378906 142.730469 L 112.472656 142.730469 Z M 112.472656 109.800781 " clip-rule="nonzero"/></clipPath><clipPath id="c9ea4b73d5"><path d="M 145.402344 109.800781 L 112.472656 109.800781 L 123.449219 142.730469 L 156.378906 142.730469 L 145.402344 109.800781 " clip-rule="nonzero"/></clipPath></defs><g clip-path="url(#d66819372a)"><path fill="#fafcfe" d="M 46.890625 37.652344 L 80.785156 37.652344 L 80.785156 142.839844 L 46.890625 142.839844 Z M 46.890625 37.652344 " fill-opacity="1" fill-rule="nonzero"/></g><g clip-path="url(#8acff7b64b)"><g clip-path="url(#bfb595bcd6)"><path fill="#fafcfe" d="M 66.628906 37.652344 L 110.667969 37.652344 L 110.667969 68.734375 L 66.628906 68.734375 Z M 66.628906 37.652344 " fill-opacity="1" fill-rule="nonzero"/></g></g><g clip-path="url(#b7cf59997e)"><path fill="#66b3ff" d="M 37.789062 37.652344 L 71.679688 37.652344 L 71.679688 142.839844 L 37.789062 142.839844 Z M 37.789062 37.652344 " fill-opacity="1" fill-rule="nonzero"/></g><g clip-path="url(#49918d7817)"><g clip-path="url(#3a5daed35e)"><path fill="#66b3ff" d="M 57.527344 37.652344 L 101.5625 37.652344 L 101.5625 68.734375 L 57.527344 68.734375 Z M 57.527344 37.652344 " fill-opacity="1" fill-rule="nonzero"/></g></g><g clip-path="url(#0ed4edb8d0)"><g clip-path="url(#08e0095a78)"><path fill="#fafcfe" d="M 210.144531 105.289062 L 166.238281 105.289062 L 166.238281 75.101562 L 210.144531 75.101562 Z M 210.144531 105.289062 " fill-opacity="1" fill-rule="nonzero"/></g></g><g clip-path="url(#c59a1f0e8d)"><path fill="#fafcfe" d="M 208.671875 37.652344 L 242.566406 37.652344 L 242.566406 142.839844 L 208.671875 142.839844 Z M 208.671875 37.652344 " fill-opacity="1" fill-rule="nonzero"/></g><g clip-path="url(#ea5f75f617)"><g clip-path="url(#b6467ec318)"><path fill="#66b3ff" d="M 200.277344 105.289062 L 156.371094 105.289062 L 156.371094 75.101562 L 200.277344 75.101562 Z M 200.277344 105.289062 " fill-opacity="1" fill-rule="nonzero"/></g></g><g clip-path="url(#1ca0eb9deb)"><path fill="#66b3ff" d="M 198.804688 37.652344 L 232.699219 37.652344 L 232.699219 142.839844 L 198.804688 142.839844 Z M 198.804688 37.652344 " fill-opacity="1" fill-rule="nonzero"/></g><g clip-path="url(#ccd2212acf)"><g clip-path="url(#67ec456b69)"><path fill="#fafcfe" d="M 115.78125 57.261719 L 159.6875 57.261719 L 159.6875 90.191406 L 115.78125 90.191406 Z M 115.78125 57.261719 " fill-opacity="1" fill-rule="nonzero"/></g></g><g clip-path="url(#742c654197)"><g clip-path="url(#4ac4c9a5cc)"><path fill="#fafcfe" d="M 122.339844 37.652344 L 166.246094 37.652344 L 166.246094 70.582031 L 122.339844 70.582031 Z M 122.339844 37.652344 " fill-opacity="1" fill-rule="nonzero"/></g></g><g clip-path="url(#8bcc1701ce)"><g clip-path="url(#920c655e51)"><path fill="#fafcfe" d="M 115.78125 90.191406 L 159.6875 90.191406 L 159.6875 123.121094 L 115.78125 123.121094 Z M 115.78125 90.191406 " fill-opacity="1" fill-rule="nonzero"/></g></g><g clip-path="url(#ee446b41b9)"><g clip-path="url(#1dd59bc536)"><path fill="#fafcfe" d="M 122.339844 109.800781 L 166.246094 109.800781 L 166.246094 142.730469 L 122.339844 142.730469 Z M 122.339844 109.800781 " fill-opacity="1" fill-rule="nonzero"/></g></g><g clip-path="url(#7271bdea78)"><g clip-path="url(#c9933b69a7)"><path fill="#66b3ff" d="M 105.914062 57.261719 L 149.820312 57.261719 L 149.820312 90.191406 L 105.914062 90.191406 Z M 105.914062 57.261719 " fill-opacity="1" fill-rule="nonzero"/></g></g><g clip-path="url(#d68c52fc26)"><g clip-path="url(#5c8d4ad76e)"><path fill="#66b3ff" d="M 112.472656 37.652344 L 156.378906 37.652344 L 156.378906 70.582031 L 112.472656 70.582031 Z M 112.472656 37.652344 " fill-opacity="1" fill-rule="nonzero"/></g></g><g clip-path="url(#24c65d65b2)"><g clip-path="url(#29d017f40c)"><path fill="#66b3ff" d="M 105.914062 90.191406 L 149.820312 90.191406 L 149.820312 123.121094 L 105.914062 123.121094 Z M 105.914062 90.191406 " fill-opacity="1" fill-rule="nonzero"/></g></g><g clip-path="url(#ac831d9d2e)"><g clip-path="url(#c9ea4b73d5)"><path fill="#66b3ff" d="M 112.472656 109.800781 L 156.378906 109.800781 L 156.378906 142.730469 L 112.472656 142.730469 Z M 112.472656 109.800781 " fill-opacity="1" fill-rule="nonzero"/></g></g></svg>